<?xml version="1.0" encoding="UTF-8" standalone="no"?>
<!DOCTYPE svg PUBLIC "-//W3C//DTD SVG 1.1//EN"
 "http://www.w3.org/Graphics/SVG/1.1/DTD/svg11.dtd">
<!-- Generated by graphviz version 2.38.0 (20140413.2041)
 -->
<!-- Title: %3 Pages: 1 -->
<svg width="225pt" height="164pt"
 viewBox="0.00 0.00 224.50 164.47" xmlns="http://www.w3.org/2000/svg" xmlns:xlink="http://www.w3.org/1999/xlink">
<g id="graph0" class="graph" transform="scale(1 1) rotate(0) translate(4 160.468)">
<title>%3</title>
<polygon fill="white" stroke="none" points="-4,4 -4,-160.468 220.5,-160.468 220.5,4 -4,4"/>
<!-- x -->
<g id="node1" class="node"><title>x</title>
<polygon fill="lightgray" stroke="black" points="20,-156.468 0,-156.468 0,-138.468 20,-138.468 20,-156.468"/>
<text text-anchor="middle" x="10" y="-145.268" font-family="Times New Roman,serif" font-size="9.00">x</text>
</g>
<!-- dx -->
<g id="node2" class="node"><title>dx</title>
<polygon fill="lightgray" stroke="black" points="63.5,-156.468 38.5,-156.468 38.5,-138.468 63.5,-138.468 63.5,-156.468"/>
<text text-anchor="middle" x="51" y="-145.268" font-family="Times New Roman,serif" font-size="9.00">dx</text>
</g>
<!-- 0 -->
<g id="node5" class="node"><title>0</title>
<ellipse fill="lightblue" stroke="black" cx="53" cy="-84.0833" rx="14.7" ry="14.7"/>
<text text-anchor="middle" x="53" y="-81.8833" font-family="Times New Roman,serif" font-size="9.00">0</text>
</g>
<!-- dx&#45;&gt;0 -->
<g id="edge3" class="edge"><title>dx&#45;&gt;0</title>
<path fill="none" stroke="red" stroke-width="0.427712" d="M51.2615,-138.443C51.5035,-131.014 51.876,-119.582 52.2142,-109.203"/>
<polygon fill="red" stroke="red" stroke-width="0.427712" points="55.7197,-109.088 52.5473,-98.9789 48.7234,-108.86 55.7197,-109.088"/>
</g>
<!-- theta -->
<g id="node3" class="node"><title>theta</title>
<polygon fill="lightgray" stroke="black" points="216.5,-93.0833 181.5,-93.0833 181.5,-75.0833 216.5,-75.0833 216.5,-93.0833"/>
<text text-anchor="middle" x="199" y="-81.8833" font-family="Times New Roman,serif" font-size="9.00">theta</text>
</g>
<!-- 1 -->
<g id="node6" class="node"><title>1</title>
<ellipse fill="lightblue" stroke="black" cx="145" cy="-14.8492" rx="14.7" ry="14.7"/>
<text text-anchor="middle" x="145" y="-12.6492" font-family="Times New Roman,serif" font-size="9.00">1</text>
</g>
<!-- theta&#45;&gt;1 -->
<g id="edge6" class="edge"><title>theta&#45;&gt;1</title>
<path fill="none" stroke="green" stroke-width="0.39721" d="M192.379,-74.8391C184.431,-64.9441 170.852,-48.0373 160.264,-34.8536"/>
<polygon fill="green" stroke="green" stroke-width="0.39721" points="162.817,-32.4437 153.826,-26.8387 157.36,-36.8271 162.817,-32.4437"/>
</g>
<!-- dtheta -->
<g id="node4" class="node"><title>dtheta</title>
<polygon fill="lightgray" stroke="black" points="120.5,-156.468 81.5,-156.468 81.5,-138.468 120.5,-138.468 120.5,-156.468"/>
<text text-anchor="middle" x="101" y="-145.268" font-family="Times New Roman,serif" font-size="9.00">dtheta</text>
</g>
<!-- dtheta&#45;&gt;0 -->
<g id="edge1" class="edge"><title>dtheta&#45;&gt;0</title>
<path fill="none" stroke="red" stroke-width="0.82236" d="M94.7248,-138.443C88.0018,-129.845 77.086,-115.886 68.1055,-104.401"/>
<polygon fill="red" stroke="red" stroke-width="0.82236" points="70.6339,-101.952 61.7168,-96.2307 65.1195,-106.264 70.6339,-101.952"/>
</g>
<!-- dtheta&#45;&gt;1 -->
<g id="edge2" class="edge"><title>dtheta&#45;&gt;1</title>
<path fill="none" stroke="green" stroke-width="0.39547" stroke-dasharray="1,5" d="M101.936,-138.227C103.797,-123.368 108.615,-91.2563 118,-65.6985 121.687,-55.6567 127.111,-45.1563 132.131,-36.3966"/>
<polygon fill="green" stroke="green" stroke-width="0.39547" points="135.213,-38.062 137.319,-27.6787 129.197,-34.482 135.213,-38.062"/>
</g>
<!-- 66 -->
<g id="node7" class="node"><title>66</title>
<ellipse fill="white" stroke="black" cx="145" cy="-84.0833" rx="18.2703" ry="18.2703"/>
<text text-anchor="middle" x="145" y="-81.8833" font-family="Times New Roman,serif" font-size="9.00">66</text>
</g>
<!-- dtheta&#45;&gt;66 -->
<g id="edge4" class="edge"><title>dtheta&#45;&gt;66</title>
<path fill="none" stroke="green" stroke-width="0.592501" d="M106.752,-138.443C112.34,-130.648 121.087,-118.444 128.807,-107.674"/>
<polygon fill="green" stroke="green" stroke-width="0.592501" points="131.717,-109.623 134.698,-99.4559 126.027,-105.545 131.717,-109.623"/>
</g>
<!-- 66&#45;&gt;1 -->
<g id="edge5" class="edge"><title>66&#45;&gt;1</title>
<path fill="none" stroke="green" stroke-width="0.553028" d="M145,-65.4183C145,-57.7354 145,-48.6054 145,-40.2874"/>
<polygon fill="green" stroke="green" stroke-width="0.553028" points="148.5,-40.0103 145,-30.0103 141.5,-40.0103 148.5,-40.0103"/>
</g>
</g>
</svg>
